<svg width="325" height="191" viewBox="0 0 325 191" fill="none" xmlns="http://www.w3.org/2000/svg">
<path fill-rule="evenodd" clip-rule="evenodd" d="M60.5922 170.8H86.4078V134.839H60.5922V170.8ZM56 86.5491H83.4498L56 127.298V191H91V66H56V86.5491Z" fill="#000105"/>
<path fill-rule="evenodd" clip-rule="evenodd" d="M138.574 170.8H164.426V134.839H138.574V170.8ZM134 86.5491H161.466L134 127.298V191H169V66H134V86.5491Z" fill="#000105"/>
<path fill-rule="evenodd" clip-rule="evenodd" d="M206.574 170.8H232.426V134.839H206.574V170.8ZM202 86.5491H229.466L202 127.298V191H237V66H202V86.5491Z" fill="#000105"/>
<path fill-rule="evenodd" clip-rule="evenodd" d="M103.438 66H99V191H126.434V170.921H103.438V135.454H128V95.5013H103.438V66Z" fill="#000105"/>
<path fill-rule="evenodd" clip-rule="evenodd" d="M182.622 66H178V191H196V170.921H182.622V66Z" fill="#000105"/>
<path fill-rule="evenodd" clip-rule="evenodd" d="M5.63677 86.6345H40.0551L5.63677 169.851V86.6345ZM1 191H47V66H1V191Z" fill="#000105"/>
<path fill-rule="evenodd" clip-rule="evenodd" d="M252.775 116.012H251.698V66H247V191H251.698V134.919H277.302V191H282V66H262.772L252.775 116.012Z" fill="#000105"/>
<path fill-rule="evenodd" clip-rule="evenodd" d="M293.701 170.921H320.024V134.919H293.701V170.921ZM320.024 66V118.79H318.944L296.454 66H289V191H325V66H320.024Z" fill="#000105"/>
<path fill-rule="evenodd" clip-rule="evenodd" d="M3.67155 53.5086L4.54355 57H6.49939L7.33232 53.4904L9.48149 44.4709H9.5L12.3854 57H14.3413L18 43H16.4904L13.895 53.4702L13.4117 55.4907H13.3726L12.8893 53.4702L10.4872 43H8.47375L6.0346 53.5086L5.54924 55.4705H5.53073L5.04742 53.5086L2.50956 43H1L3.67155 53.5086Z" fill="#000105"/>
<path fill-rule="evenodd" clip-rule="evenodd" d="M22.5436 57H24.4973L25.3303 53.4904L27.4815 44.4709H27.5L30.3854 57H32.3392L36 43H34.4884L31.895 53.4702L31.4117 55.4907H31.3726L30.8872 53.4702L28.4872 43H26.4737L24.0325 53.5086L23.5492 55.4705H23.5307L23.0454 53.5086L20.5096 43H19L21.6715 53.5086L22.5436 57Z" fill="#000105"/>
<path fill-rule="evenodd" clip-rule="evenodd" d="M48.897 53.4702L48.4117 55.4907H48.3726L47.8893 53.4702L45.4892 43H43.4737L41.0346 53.5086L40.5513 55.4705H40.5307L40.0474 53.5086L37.5116 43H36L38.6736 53.5086L39.5436 57H41.4994L42.3323 53.4904L44.4815 44.4709H44.5021L47.3854 57H49.3413L53 43H51.4904L48.897 53.4702Z" fill="#000105"/>
<path fill-rule="evenodd" clip-rule="evenodd" d="M53.247 56H54.753V54H53.247V56Z" fill="#000105"/>
<path fill-rule="evenodd" clip-rule="evenodd" d="M62.5988 55.7837H59.5389V44.2163H62.4712C65.7192 44.2163 68.4387 45.9014 68.4387 49.7444C68.4387 53.7248 65.7192 55.7837 62.5988 55.7837ZM62.3659 43H58V57H62.5339C67.2178 57 70 53.7834 70 49.7444C70 45.6468 67.2178 43 62.3659 43Z" fill="#000105"/>
<path fill-rule="evenodd" clip-rule="evenodd" d="M75.4694 44.2749H75.5306L78.2707 51.4901H72.7293L75.4694 44.2749ZM70.5648 57L72.2741 52.666H78.7237L80.4352 57H82L76.5002 43H74.4998L69 57H70.5648Z" fill="#000105"/>
<path fill-rule="evenodd" clip-rule="evenodd" d="M87.2771 57V44.2163H92V43H81V44.2163H85.7229V57H87.2771Z" fill="#000105"/>
<path fill-rule="evenodd" clip-rule="evenodd" d="M92.7293 51.4901L95.4694 44.2749H95.5306L98.2707 51.4901H92.7293ZM102 57L96.498 43H94.4998L89 57H90.5648L92.2741 52.666H98.7237L100.435 57H102Z" fill="#000105"/>
<path fill-rule="evenodd" clip-rule="evenodd" d="M104 43V57H112V55.7837H105.361V43H104Z" fill="#000105"/>
<path fill-rule="evenodd" clip-rule="evenodd" d="M119.468 44.2749H119.532L122.271 51.4901H116.729L119.468 44.2749ZM116.276 52.666H122.724L124.433 57H126L120.499 43H118.501L113 57H114.567L116.276 52.666Z" fill="#000105"/>
<path fill-rule="evenodd" clip-rule="evenodd" d="M137.054 57H139V43H137.405V52.3145C137.405 53.1954 137.428 54.0582 137.428 54.9411C136.88 54.1754 136.334 53.353 135.789 52.6074L128.902 43H127V57H128.595V47.9603C128.595 47.039 128.574 46.0792 128.574 45.1377C129.141 45.9216 129.71 46.7642 130.279 47.5481L137.054 57Z" fill="#000105"/>
<path fill-rule="evenodd" clip-rule="evenodd" d="M143.539 44.2163H146.471C149.719 44.2163 152.439 45.9014 152.439 49.7444C152.439 53.7248 149.719 55.7837 146.597 55.7837H143.539V44.2163ZM154 49.7444C154 45.6468 151.216 43 146.366 43H142V57H146.534C151.216 57 154 53.7834 154 49.7444Z" fill="#000105"/>
<path fill-rule="evenodd" clip-rule="evenodd" d="M155.729 51.4901L158.468 44.2749H158.53L161.269 51.4901H155.729ZM157.501 43L152 57H153.565L155.276 52.666H161.722L163.433 57H165L159.499 43H157.501Z" fill="#000105"/>
<path fill-rule="evenodd" clip-rule="evenodd" d="M175 43H164V44.2163H168.723V57H170.275V44.2163H175V43Z" fill="#000105"/>
<path fill-rule="evenodd" clip-rule="evenodd" d="M175.729 51.4901L178.468 44.2749H178.532L181.271 51.4901H175.729ZM183.433 57H185L179.499 43H177.501L172 57H173.565L175.274 52.666H181.724L183.433 57Z" fill="#000105"/>
<path fill-rule="evenodd" clip-rule="evenodd" d="M188.362 43H187V57H195V55.7837H188.362V43Z" fill="#000105"/>
<path fill-rule="evenodd" clip-rule="evenodd" d="M199.731 51.4901L202.47 44.2749H202.532L205.271 51.4901H199.731ZM207.435 57H209L203.499 43H201.501L196 57H197.567L199.278 52.666H205.724L207.435 57Z" fill="#000105"/>
<path fill-rule="evenodd" clip-rule="evenodd" d="M220.054 57H222V43H220.402V52.3145C220.402 53.1954 220.426 54.0582 220.426 54.9411C219.88 54.1754 219.332 53.353 218.786 52.6074L211.899 43H210V57H211.593V47.9603C211.593 47.039 211.572 46.0792 211.572 45.1377C212.141 45.9216 212.71 46.7642 213.279 47.5481L220.054 57Z" fill="#000105"/>
<path fill-rule="evenodd" clip-rule="evenodd" d="M228.597 55.7837H225.539V44.2163H228.471C231.721 44.2163 234.439 45.9014 234.439 49.7444C234.439 53.7248 231.721 55.7837 228.597 55.7837ZM228.366 43H224V57H228.536C233.218 57 236 53.7834 236 49.7444C236 45.6468 233.218 43 228.366 43Z" fill="#000105"/>
<path fill-rule="evenodd" clip-rule="evenodd" d="M237.247 56H238.753V54H237.247V56Z" fill="#000105"/>
<path fill-rule="evenodd" clip-rule="evenodd" d="M255 52.6112H253.445C252.827 54.4071 251.19 55.7341 248.496 55.7341C244.458 55.7341 242.511 52.7143 242.511 49.4905C242.511 46.2857 244.48 43.2449 248.496 43.2449C251.168 43.2449 252.66 44.4688 253.425 46.3467H254.956C254.067 43.8148 252.037 42 248.496 42C243.714 42 241 45.3878 241 49.4905C241 53.6122 243.714 57 248.496 57C252.079 57 254.358 55.0401 255 52.6112Z" fill="#000105"/>
<path fill-rule="evenodd" clip-rule="evenodd" d="M261.991 55.7668C258.295 55.7668 256.397 52.6319 256.397 49.501C256.397 46.3869 258.295 43.254 261.991 43.254C265.725 43.254 267.58 46.3869 267.58 49.501C267.58 52.6319 265.725 55.7668 261.991 55.7668ZM261.991 42C257.626 42 255 45.437 255 49.501C255 53.5838 257.626 57 261.991 57C266.376 57 269 53.5838 269 49.501C269 45.437 266.376 42 261.991 42Z" fill="#000105"/>
<path fill-rule="evenodd" clip-rule="evenodd" d="M279.031 55.2745H279.01L274.455 43.0182L272 43V57H273.491V44.7053H273.535L278.152 57H279.869L284.467 44.7053H284.509V57H286V43H283.549L279.031 55.2745Z" fill="#000105"/>
<path fill-rule="evenodd" clip-rule="evenodd" d="M3.53921 23.2143H6.47199C9.71845 23.2143 12.4406 24.9014 12.4406 28.7444C12.4406 32.7248 9.71845 34.7837 6.59746 34.7837H3.53921V23.2143ZM14 28.7444C14 24.6468 11.2173 22 6.36445 22H2V36H6.53249C11.2173 36 14 32.7854 14 28.7444Z" fill="#000105"/>
<path fill-rule="evenodd" clip-rule="evenodd" d="M16.7293 30.4901L19.4694 23.2749H19.5306L22.2707 30.4901H16.7293ZM24.4352 36H26L20.498 22H18.4998L13 36H14.5648L16.2741 31.666H22.7237L24.4352 36Z" fill="#000105"/>
<path fill-rule="evenodd" clip-rule="evenodd" d="M30.2771 36V23.2143H35V22H24V23.2143H28.7229V36H30.2771Z" fill="#000105"/>
<path fill-rule="evenodd" clip-rule="evenodd" d="M39.5306 23.2749L42.2707 30.4901H36.7293L39.4694 23.2749H39.5306ZM33 36H34.5648L36.2741 31.666H42.7237L44.4352 36H46L40.5002 22H38.4998L33 36Z" fill="#000105"/>
<path fill-rule="evenodd" clip-rule="evenodd" d="M56 34.7837H49.3588V22H48V36H56V34.7837Z" fill="#000105"/>
<path fill-rule="evenodd" clip-rule="evenodd" d="M64.4694 23.2749H64.5306L67.2707 30.4901H61.7293L64.4694 23.2749ZM59.5648 36L61.2763 31.666H67.7237L69.4352 36H71L65.5002 22H63.502L58 36H59.5648Z" fill="#000105"/>
<path fill-rule="evenodd" clip-rule="evenodd" d="M72.9017 22H71V36H72.5952V26.9603C72.5952 26.039 72.572 25.0792 72.572 24.1377C73.1432 24.9216 73.7098 25.7642 74.2786 26.5481L81.0542 36H83V22H81.4048V31.3145C81.4048 32.1954 81.4257 33.0582 81.4257 33.9411C80.88 33.1754 80.3344 32.353 79.7864 31.6074L72.9017 22Z" fill="#000105"/>
<path fill-rule="evenodd" clip-rule="evenodd" d="M89.5966 34.7837H86.5389V23.2143H89.4712C92.7192 23.2143 95.4387 24.9014 95.4387 28.7444C95.4387 32.7248 92.7192 34.7837 89.5966 34.7837ZM97 28.7444C97 24.6468 94.2156 22 89.3659 22H85V36H89.5339C94.2156 36 97 32.7854 97 28.7444Z" fill="#000105"/>
<path fill-rule="evenodd" clip-rule="evenodd" d="M104.421 23.2143H107.246C109.447 23.2143 110.558 24.2933 110.558 26.0592C110.558 27.9807 109.31 29.001 107.109 29.001H104.421V23.2143ZM104.421 30.1951H107.306C110.012 30.1951 112 28.5686 112 26.0592C112 23.5881 110.07 22 107.44 22H103V36H104.421V30.1951Z" fill="#000105"/>
<path fill-rule="evenodd" clip-rule="evenodd" d="M119.5 36C123.249 36 125 33.7477 125 30.8584V22H123.44V30.8584C123.44 33.0532 122.175 34.8252 119.5 34.8252C116.803 34.8252 115.538 33.0532 115.538 30.8584V22H114V30.8584C114 33.7477 115.728 36 119.5 36Z" fill="#000105"/>
<path fill-rule="evenodd" clip-rule="evenodd" d="M128.345 29.4516H131.75C133.515 29.4516 134.639 30.4315 134.639 32.1368C134.639 33.7451 133.498 34.7837 131.694 34.7837H128.345V29.4516ZM128.345 23.2143H131.234C133.056 23.2143 134.086 24.0003 134.086 25.7056C134.086 27.3725 133.001 28.2534 131.16 28.2534H128.345V23.2143ZM136 32.1368C136 30.1769 134.749 29.0192 133.203 28.803V28.7848C134.51 28.2938 135.449 27.2553 135.449 25.7056C135.449 23.2749 133.736 22 131.492 22H127V36H131.584C134.252 36 136 34.6281 136 32.1368Z" fill="#000105"/>
<path fill-rule="evenodd" clip-rule="evenodd" d="M140 22V36H148V34.7837H141.361V22H140Z" fill="#000105"/>
<path fill-rule="evenodd" clip-rule="evenodd" d="M148.313 36H149.687V22H148.313V36Z" fill="#000105"/>
<path fill-rule="evenodd" clip-rule="evenodd" d="M157.531 22.2554C159.577 22.2554 160.869 23.2079 161.148 25.1965H162.739C162.46 22.3369 160.373 21 157.531 21C154.863 21 152.537 22.3369 152.581 24.9521C152.601 27.4859 154.755 28.2358 157.746 29.088C159.833 29.6541 161.406 30.1011 161.406 32.0061C161.406 33.9926 159.662 34.7425 157.746 34.7425C155.574 34.7425 153.742 33.6292 153.591 31.3377H152C152.128 34.5817 154.735 36 157.746 36C160.393 36 163 34.9054 163 31.9664C163 29.088 160.544 28.4593 158.068 27.7908C155.507 27.1015 154.152 26.4937 154.152 24.8518C154.152 23.0868 155.681 22.2554 157.531 22.2554Z" fill="#000105"/>
<path fill-rule="evenodd" clip-rule="evenodd" d="M166 22V36H167.544V29.5284H175.431V36H177V22H175.431V28.314H167.544V22H166Z" fill="#000105"/>
<path fill-rule="evenodd" clip-rule="evenodd" d="M178.313 36H179.687V22H178.313V36Z" fill="#000105"/>
<path fill-rule="evenodd" clip-rule="evenodd" d="M193.055 36H195V22H193.405V31.3145C193.405 32.1954 193.426 33.0582 193.426 33.9411C192.88 33.1754 192.333 32.353 191.787 31.6074L184.901 22H183V36H184.595V26.9603C184.595 26.039 184.574 25.0792 184.574 24.1377C185.143 24.9216 185.712 25.7642 186.278 26.5481L193.055 36Z" fill="#000105"/>
<path fill-rule="evenodd" clip-rule="evenodd" d="M204.281 36C207.157 36 208.795 34.7046 209.593 32.9024L209.698 35.7163H210.808L211 28.5094H204.493V29.7234L209.489 29.7046C209.468 33.0046 207.199 34.7651 204.281 34.7651C200.337 34.7651 198.532 31.607 198.532 28.4906C198.532 25.393 200.484 22.2349 204.453 22.2349C207.304 22.2349 208.67 23.6512 209.214 25.3721H210.788C210.075 23.0442 208.122 21 204.453 21C199.709 21 197 24.5002 197 28.4906C197 32.4977 199.475 36 204.281 36Z" fill="#000105"/>
<mask id="mask0_0_810" style="mask-type:alpha" maskUnits="userSpaceOnUse" x="0" y="0" width="15" height="15">
<path fill-rule="evenodd" clip-rule="evenodd" d="M0 0H15V15H0V0Z" fill="white"/>
</mask>
<g mask="url(#mask0_0_810)">
<path fill-rule="evenodd" clip-rule="evenodd" d="M7.53574 11.1034C9.29329 11.1034 10.4384 10.1176 10.774 8.79917H9.62886C9.35202 9.64502 8.6599 10.1379 7.55671 10.1379C5.97534 10.1379 5.10705 8.97564 5.10705 7.46043C5.10705 5.92493 5.99421 4.76469 7.55671 4.76469C8.5823 4.76469 9.25344 5.17646 9.62886 6.10141H10.774C10.3 4.70384 9.29329 3.81946 7.55671 3.81946C5.34404 3.81946 3.96191 5.39349 3.96191 7.46043C3.96191 9.54765 5.34404 11.1034 7.53574 11.1034Z" fill="#000105"/>
<path fill-rule="evenodd" clip-rule="evenodd" d="M7.43719 1.02434C10.9313 1.02434 13.7753 3.8783 13.7753 7.46045C13.7753 11.142 10.9313 13.9757 7.43719 13.9757C3.92209 13.9757 1.07813 11.142 1.07813 7.46045C1.07813 3.8783 3.90321 1.02434 7.43719 1.02434ZM7.43719 15C11.5647 15 15.0001 11.7323 15.0001 7.46045C15.0001 3.26775 11.5647 0 7.43719 0C3.30967 0 -0.125732 3.26775 -0.125732 7.46045C-0.125732 11.7323 3.30967 15 7.43719 15Z" fill="#000105"/>
</g>
<path fill-rule="evenodd" clip-rule="evenodd" d="M20.2574 8.093C18.3703 9.43714 16.1941 10.9581 16 14H25V12.8688H17.7116C18.1576 10.9963 20.0819 9.92537 21.8121 8.57922C23.2904 7.42997 24.8245 6.41533 24.8245 3.91992C24.8245 1.59931 23.2698 0 20.6063 0C17.7509 0 16.1755 1.67767 16.1549 4.46642H17.5155C17.5361 2.53559 18.5664 1.13117 20.5485 1.13117C22.4935 1.13117 23.4639 2.43714 23.4639 3.95809C23.4639 5.81056 22.318 6.63031 20.2574 8.093Z" fill="#000105"/>
<path fill-rule="evenodd" clip-rule="evenodd" d="M32.4449 13.8416C30.7968 13.8416 29.4633 12.7051 29.2961 11.0857H28C28.1672 13.5138 30.1477 15 32.4449 15C35.2594 15 37 12.8581 37 10.2949C37 7.28669 35.3145 5.56997 32.6672 5.56997C31.3337 5.56997 30.2598 6.09055 29.6305 6.90122L30.2972 2.1564H35.9261V1H29.2961L28.2773 8.38547L29.6108 8.53846C30.0553 7.70991 30.9816 6.74624 32.4803 6.74624C34.5927 6.74624 35.7039 8.13511 35.7039 10.2949C35.7039 12.6475 34.1108 13.8416 32.4449 13.8416Z" fill="#000105"/>
<path fill-rule="evenodd" clip-rule="evenodd" d="M39.247 14H40.753V12H39.247V14Z" fill="#000105"/>
<path fill-rule="evenodd" clip-rule="evenodd" d="M44.7985 15H46V1H45.0228C44.7293 3.23467 44.0255 3.41247 42 3.41247V4.451H44.7985V15Z" fill="#000105"/>
<path fill-rule="evenodd" clip-rule="evenodd" d="M53.4883 2.15004C56.4086 2.15004 57.4629 5.21877 57.4629 7.92392C57.4629 10.6271 56.4086 13.848 53.4883 13.848C50.5891 13.848 49.5371 10.6271 49.5371 7.92392C49.5371 5.21877 50.5891 2.15004 53.4883 2.15004ZM53.4883 15C57.5725 15 59 11.4135 59 7.92392C59 4.43232 57.5725 1 53.4883 1C49.4251 1 48 4.43232 48 7.92392C48 11.4333 49.4251 15 53.4883 15Z" fill="#000105"/>
<path fill-rule="evenodd" clip-rule="evenodd" d="M61.247 14H62.753V12H61.247V14Z" fill="#000105"/>
<path fill-rule="evenodd" clip-rule="evenodd" d="M68.2574 8.093C66.3703 9.43714 64.1941 10.9581 64 14H73V12.8688H65.7096C66.1576 10.9963 68.0819 9.92537 69.8121 8.57922C71.2884 7.42997 72.8245 6.41533 72.8245 3.91992C72.8245 1.59931 71.2698 0 68.6063 0C65.7488 0 64.1755 1.67767 64.1549 4.46642H65.5155C65.5341 2.53559 66.5643 1.13117 68.5485 1.13117C70.4914 1.13117 71.4639 2.43714 71.4639 3.95809C71.4639 5.81056 70.318 6.63031 68.2574 8.093Z" fill="#000105"/>
<path fill-rule="evenodd" clip-rule="evenodd" d="M80.4895 2.15004C83.4092 2.15004 84.4632 5.21877 84.4632 7.92392C84.4632 10.6271 83.4092 13.848 80.4895 13.848C77.5908 13.848 76.5391 10.6271 76.5391 7.92392C76.5391 5.21877 77.5908 2.15004 80.4895 2.15004ZM80.4895 15C84.5728 15 86 11.4135 86 7.92392C86 4.43232 84.5728 1 80.4895 1C76.4272 1 75 4.43232 75 7.92392C75 11.4333 76.4272 15 80.4895 15Z" fill="#000105"/>
<path fill-rule="evenodd" clip-rule="evenodd" d="M92.2574 8.093C90.3723 9.43714 88.1941 10.9581 88 14H97V12.8688H89.7096C90.1576 10.9963 92.0819 9.92537 93.8121 8.57922C95.2904 7.42997 96.8245 6.41533 96.8245 3.91992C96.8245 1.59931 95.2698 0 92.6063 0C89.7488 0 88.1755 1.67767 88.1549 4.46642H89.5155C89.5341 2.53559 90.5643 1.13117 92.5485 1.13117C94.4914 1.13117 95.4639 2.43714 95.4639 3.95809C95.4639 5.81056 94.318 6.63031 92.2574 8.093Z" fill="#000105"/>
<path fill-rule="evenodd" clip-rule="evenodd" d="M100.798 15H102V1H101.022C100.731 3.23467 100.025 3.41247 98 3.41247V4.451H100.798V15Z" fill="#000105"/>
<path fill-rule="evenodd" clip-rule="evenodd" d="M144.497 15C148.081 15 150.36 13.0401 151 10.6112H149.447C148.827 12.4092 147.19 13.7341 144.497 13.7341C140.458 13.7341 138.514 10.7143 138.514 7.49054C138.514 4.28571 140.48 1.24492 144.497 1.24492C147.17 1.24492 148.662 2.46881 149.427 4.3467H150.96C150.069 1.81691 148.039 0 144.497 0C139.712 0 137 3.38778 137 7.49054C137 11.6122 139.712 15 144.497 15Z" fill="#000105"/>
<path fill-rule="evenodd" clip-rule="evenodd" d="M156.468 2.27493H156.532L159.271 9.49011H153.729L156.468 2.27493ZM153.276 10.6681H159.724L161.433 15H163L157.499 1H155.501L150 15H151.565L153.276 10.6681Z" fill="#000105"/>
<path fill-rule="evenodd" clip-rule="evenodd" d="M164.313 15H165.687V1H164.313V15Z" fill="#000105"/>
<path fill-rule="evenodd" clip-rule="evenodd" d="M170.553 2.21432H174.135C176.932 2.21432 177.74 3.48925 177.74 4.86318C177.74 6.64728 176.608 7.82321 174.287 7.82321H170.553V2.21432ZM170.553 9.03954H173.796C175.777 9.03954 176.354 10.0579 176.97 11.5894C177.401 12.6865 177.783 13.9817 178.315 15H180V14.8626C179.423 13.9211 179.124 13.1573 178.678 11.8622C178.016 9.8437 177.505 8.86376 176.099 8.54856C177.93 8.1384 179.337 6.88368 179.337 4.86318C179.337 2.7255 177.763 1 174.287 1H169V15H170.553V9.03954Z" fill="#000105"/>
<path fill-rule="evenodd" clip-rule="evenodd" d="M187.99 1.25399C191.725 1.25399 193.584 4.38689 193.584 7.50104C193.584 10.6339 191.725 13.7668 187.99 13.7668C184.296 13.7668 182.4 10.6339 182.4 7.50104C182.4 4.38689 184.296 1.25399 187.99 1.25399ZM187.99 15C192.376 15 195 11.5838 195 7.50104C195 3.43702 192.376 0 187.99 0C183.622 0 181 3.43702 181 7.50104C181 11.5838 183.622 15 187.99 15Z" fill="#000105"/>
<path fill-rule="evenodd" clip-rule="evenodd" d="M198 12H196.78L196 17H196.936L198 12Z" fill="#000105"/>
<path fill-rule="evenodd" clip-rule="evenodd" d="M212 13.7857H205.336V8.47179H211.559V7.25545H205.336V2.21432H211.942V1H204V15H212V13.7857Z" fill="#000105"/>
<path fill-rule="evenodd" clip-rule="evenodd" d="M221.284 15C224.158 15 225.797 13.7046 226.593 11.9024L226.698 14.7163H227.813L228 7.51147H221.494V8.72549L226.488 8.70463C226.466 12.0046 224.203 13.7651 221.284 13.7651C217.338 13.7651 215.532 10.607 215.532 7.49061C215.532 4.39299 217.483 1.23488 221.449 1.23488C224.308 1.23488 225.67 2.65123 226.216 4.37213H227.79C227.077 2.04422 225.126 0 221.449 0C216.707 0 214 3.50229 214 7.49061C214 11.4977 216.477 15 221.284 15Z" fill="#000105"/>
<path fill-rule="evenodd" clip-rule="evenodd" d="M232.205 15H233.775V9.27594L239 1H237.215C235.837 3.29528 234.413 5.60875 233.033 7.92221H232.99C231.609 5.60875 230.186 3.29528 228.782 1H227L232.205 9.27594V15Z" fill="#000105"/>
<path fill-rule="evenodd" clip-rule="evenodd" d="M242.422 2.21432H245.249C247.448 2.21432 248.558 3.29528 248.558 5.05917C248.558 6.98066 247.314 8.00101 245.11 8.00101H242.422V2.21432ZM242.422 9.19714H245.304C248.011 9.19714 250 7.56862 250 5.05917C250 2.58811 248.073 1 245.441 1H241V15H242.422V9.19714Z" fill="#000105"/>
<path fill-rule="evenodd" clip-rule="evenodd" d="M255.722 15H257.276V2.21432H262V1H251V2.21432H255.722V15Z" fill="#000105"/>
<path fill-rule="evenodd" clip-rule="evenodd" d="M214.264 39.6307C214.588 39.7441 214.88 39.8316 215.131 39.8973C215.637 40.0107 216.263 40.0306 217.008 39.955C217.753 39.8794 218.561 39.2984 219.426 38.216C220.292 37.1336 220.745 35.9816 220.783 34.7599C220.81 34.6843 220.845 34.6445 220.885 34.6445C221.103 34.6564 221.315 34.6544 221.524 34.6445C223.534 34.8236 225.618 34.9589 227.776 35.0544C229.932 35.1519 232.169 35.1976 234.487 35.1976C236.804 35.1976 239.045 35.1539 241.209 35.0643C243.373 34.9748 245.46 34.8355 247.47 34.6445C247.477 34.6445 247.479 34.6385 247.485 34.6365C248.057 34.6266 248.6 34.3858 249.11 33.9003C249.495 34.3958 250.061 34.6445 250.806 34.6445C251.565 34.6445 252.204 34.352 252.724 33.767C253.203 34.4794 253.914 34.8156 254.861 34.7778C255.169 34.7539 255.427 34.6047 255.639 34.3401C255.841 34.0715 256.066 33.5422 256.32 32.7543C256.359 32.6767 256.393 32.6767 256.42 32.7543C256.919 33.9978 257.708 34.6226 258.775 34.6385C258.783 34.6385 258.788 34.6445 258.796 34.6445C258.798 34.6445 258.8 34.6425 258.802 34.6425C258.808 34.6425 258.81 34.6445 258.817 34.6445C258.825 34.6445 258.833 34.6326 258.844 34.6306C259.857 34.5092 260.656 33.7034 261.235 32.1992C261.247 32.1494 261.266 32.1554 261.293 32.2191C261.732 33.8108 262.525 34.6186 263.671 34.6445C264.601 34.6326 265.267 33.8108 265.669 32.1813C266.014 33.3273 266.407 34.1033 266.846 34.5112C267.185 34.8156 267.533 34.935 267.885 34.9609C267.939 35.0106 267.999 35.0385 268.064 35.0265C268.111 35.0205 268.147 34.9947 268.193 34.9847C268.211 34.9827 268.228 34.9907 268.245 34.9887C268.28 34.9827 268.305 34.9489 268.338 34.937C269.202 34.6883 269.741 33.968 269.924 32.7145C269.988 32.3464 270.013 31.8589 269.992 31.2541C269.972 30.6492 269.924 29.9389 269.843 29.1251L269.664 27.3483C269.61 26.8131 269.564 26.3316 269.522 25.9058C269.483 25.48 269.449 25.1059 269.422 24.7895C269.422 24.6741 269.47 24.5707 269.564 24.4831C269.976 24.0374 270.096 23.733 269.924 23.5659C269.628 23.2853 269.362 22.8337 269.123 22.2089C269.083 22.0696 269.016 22 268.923 22C268.817 22 268.744 22.0577 268.704 22.1731L268.324 22.9929L268.384 23.7569C268.451 24.3419 268.611 25.8142 268.865 28.168C268.996 29.342 269.083 30.301 269.123 31.0531C269.162 31.8052 269.168 32.3464 269.143 32.6767C268.906 32.81 268.546 32.8299 268.086 32.7603C267.504 32.5891 267.046 32.0997 266.726 31.264C266.393 30.3846 266.066 28.0427 265.748 24.2344C265.694 23.6236 265.65 23.152 265.617 22.8217C265.585 22.4915 265.569 22.2985 265.569 22.2487C265.569 22.1333 265.527 22.0696 265.448 22.0577C265.367 22.0318 265.288 22.0836 265.209 22.2089L264.73 23.0307C264.622 23.1958 264.589 23.4326 264.63 23.739L265.367 31.1108C265.329 31.5824 265.209 31.9644 265.007 32.2569C264.822 32.5255 264.376 32.7483 263.671 32.9254C263.111 32.8737 262.697 32.5891 262.431 32.0659C262.246 31.6719 261.986 30.7407 261.653 29.2783C261.586 28.946 261.524 28.6635 261.463 28.4267C261.403 28.1919 261.359 28.0109 261.334 27.8835C261.278 27.6288 261.187 27.5632 261.053 27.6925C261.001 27.7681 260.902 27.9412 260.754 28.2078C260.606 28.4864 260.542 28.6714 260.554 28.761C260.66 29.3479 260.75 29.8374 260.825 30.2314C260.897 30.6253 260.96 30.9198 261.012 31.1108C261.12 31.5067 261.16 31.7216 261.133 31.7614C260.683 32.4956 259.907 32.8836 258.81 32.9234C258.014 32.8458 257.377 32.2171 256.9 31.0352C256.859 30.9337 256.765 30.88 256.619 30.88C256.474 30.88 256.393 30.9337 256.38 31.0352C256.18 31.851 255.968 32.3643 255.739 32.5812C255.515 32.7981 255.169 32.8617 254.701 32.7742C254.247 32.6846 254.002 32.4857 253.962 32.1813C253.935 32.0161 254.002 31.7276 254.162 31.3217C254.229 31.1546 254.222 31.0292 254.143 30.9397C254.064 30.8502 253.971 30.8243 253.862 30.8641C253.769 30.8999 253.683 30.9954 253.604 31.1486C252.964 32.6011 251.838 33.0149 250.227 32.3902C250.294 32.2887 250.35 32.1872 250.398 32.0858C250.444 31.9823 250.494 31.8868 250.546 31.7972C250.639 31.6082 250.648 31.461 250.567 31.3595C250.487 31.258 250.394 31.2242 250.288 31.264C250.18 31.3018 250.086 31.3973 250.007 31.5485C249.622 32.3782 248.771 32.8359 247.452 32.9254C247.45 32.9254 247.45 32.9254 247.447 32.9254C245.444 33.1184 243.367 33.2537 241.22 33.3373C239.062 33.4188 236.823 33.4606 234.507 33.4606C232.189 33.4606 229.948 33.4169 227.787 33.3273C225.631 33.2378 223.55 33.1045 221.546 32.9274C221.544 32.9274 221.544 32.9254 221.544 32.9254C221.251 32.9254 220.997 32.8359 220.783 32.6588C220.585 32.4797 220.371 32.1992 220.146 31.8171C220.065 31.6918 219.98 31.7276 219.886 31.9325L219.266 33.4606C219.214 33.6258 219.239 33.7611 219.347 33.8606C219.917 34.3958 220.192 34.8295 220.167 35.1598C220.046 35.6692 219.744 36.1845 219.266 36.7078C218.694 37.3067 218.097 37.7922 217.479 38.1682C216.861 38.5443 216.209 38.803 215.531 38.9422C214.88 39.0696 214.118 39.0318 213.253 38.8288C213.173 38.803 213.107 38.8089 213.055 38.8467C213.001 38.8726 212.986 38.9283 213.013 39.0178C213.028 39.0815 213.086 39.1332 213.194 39.171C213.579 39.3621 213.935 39.5153 214.264 39.6307Z" fill="#000105"/>
<path fill-rule="evenodd" clip-rule="evenodd" d="M251.045 29.057C251.412 29.3075 251.698 29.5051 251.909 29.6521C252.118 29.7992 252.243 29.8957 252.284 29.9371C252.374 30.0129 252.433 30.0198 252.458 29.96L253.088 28.8594C253.336 29.034 253.536 29.1742 253.688 29.2776C253.837 29.3787 253.933 29.4453 253.972 29.4752C254.052 29.5487 254.103 29.5625 254.13 29.5212L254.975 27.9978C255.014 27.938 255.008 27.8806 254.955 27.8208C254.77 27.6324 254.576 27.467 254.365 27.336C254.156 27.2027 253.933 27.0924 253.698 27.0051C253.632 26.9913 253.585 27.0051 253.561 27.0488L252.969 27.9978C252.826 27.8806 252.675 27.7818 252.519 27.7014C252.361 27.6209 252.198 27.5405 252.028 27.467C251.96 27.4532 251.915 27.467 251.889 27.5129L251.025 28.9467C250.986 28.9743 250.992 29.0134 251.045 29.057Z" fill="#000105"/>
<path fill-rule="evenodd" clip-rule="evenodd" d="M253.098 26.9377C253.176 27.0063 253.225 27.019 253.248 26.972L253.989 25.7917C254.012 25.7465 253.999 25.6995 253.954 25.6543C253.798 25.5024 253.63 25.3759 253.45 25.2711C253.271 25.1662 253.08 25.0813 252.879 25.0108C252.823 24.9891 252.784 24.9999 252.762 25.0451L252.023 26.1568C251.988 26.1911 251.993 26.2255 252.04 26.2616C252.364 26.4568 252.613 26.6141 252.786 26.7298C252.961 26.8455 253.064 26.9142 253.098 26.9377Z" fill="#000105"/>
<path fill-rule="evenodd" clip-rule="evenodd" d="M260.145 24.053L259.025 25.7577C258.98 25.8039 258.995 25.8501 259.073 25.8988C259.558 26.193 259.931 26.424 260.191 26.5967C260.45 26.7693 260.609 26.8763 260.668 26.9226C260.775 27.0174 260.854 27.0247 260.897 26.9469L261.969 25.1741C262.017 25.1109 262.009 25.0476 261.948 24.9868C261.474 24.5515 260.937 24.2232 260.326 24.0044C260.236 23.9922 260.174 24.0044 260.145 24.053Z" fill="#000105"/>
<path fill-rule="evenodd" clip-rule="evenodd" d="M287.327 25.0044C287.237 24.9922 287.175 25.0044 287.146 25.053L286.027 26.757C285.979 26.8032 285.996 26.8494 286.072 26.898C286.557 27.1921 286.932 27.4255 287.189 27.5956C287.448 27.7682 287.608 27.8752 287.669 27.9238C287.774 28.0162 287.85 28.0259 287.898 27.9457L288.97 26.1736C289.017 26.1128 289.008 26.0472 288.946 25.9864C288.475 25.5513 287.936 25.2232 287.327 25.0044Z" fill="#000105"/>
<path fill-rule="evenodd" clip-rule="evenodd" d="M288.38 28.8184C288.216 28.525 288.097 28.5112 288.027 28.7748L287.592 30.4459C287.534 30.666 287.571 30.8425 287.696 30.9754C287.833 31.1198 287.984 31.349 288.151 31.6585C288.359 32.039 288.443 32.2522 288.402 32.2958C287.986 32.7038 287.38 32.7703 286.582 32.4952C286.573 32.4883 286.562 32.4769 286.553 32.47C286.192 32.266 285.742 31.2688 285.203 29.4785C284.939 28.5846 284.705 27.7295 284.495 26.9158C284.287 26.0997 284.108 25.3112 283.956 24.5479C283.872 24.1834 283.789 24 283.707 24C283.638 24 283.573 24.094 283.519 24.2842L283.125 25.4739C283.028 25.7811 283.11 26.4482 283.372 27.4774C283.913 29.4579 284.108 30.6316 283.956 30.9983C283.692 31.5852 282.896 32.0665 281.564 32.4493C280.346 32.8024 279.515 32.8299 279.073 32.5387C278.891 32.4058 278.74 32.1628 278.614 31.8098C278.586 31.7387 278.532 31.6998 278.45 31.6998C278.38 31.6998 278.331 31.7296 278.305 31.7892C277.818 33.5198 277.915 34.533 278.593 34.8264C279.149 35.0901 279.98 35.0534 281.088 34.7164C282.183 34.3932 282.986 33.9462 283.497 33.3731C283.664 33.1989 283.818 32.8826 283.956 32.4287C284.092 31.9748 284.196 31.5622 284.268 31.1955C284.294 31.1519 284.322 31.129 284.352 31.129C284.391 31.129 284.419 31.1519 284.434 31.1955C284.85 32.729 285.363 33.772 285.965 34.3588C285.995 34.3932 285.995 34.4413 286.032 34.4734C286.088 34.5261 286.157 34.5399 286.218 34.5835C286.339 34.6706 286.465 34.7462 286.592 34.7989C286.655 34.8219 286.72 34.8356 286.785 34.8517C287.01 34.9113 287.242 34.9365 287.489 34.8929C287.556 34.8815 287.592 34.8471 287.644 34.8219C288.038 34.7279 288.346 34.5743 288.506 34.3198C288.711 33.9806 288.859 33.4923 288.943 32.8436C289.025 32.1559 289.019 31.4362 288.921 30.6889C288.809 29.8682 288.629 29.2447 288.38 28.8184Z" fill="#000105"/>
<path fill-rule="evenodd" clip-rule="evenodd" d="M299.298 34.0853C299.007 34.1772 298.546 34.2261 297.913 34.2322C297.909 34.2322 297.903 34.2322 297.898 34.2322C297.903 34.2282 297.909 34.2282 297.913 34.222C298.322 33.8466 298.682 33.4223 299.011 32.9714C299.162 33.3794 299.261 33.7548 299.298 34.0853ZM292.684 25.5653C292.835 25.7346 293 25.7611 293.179 25.6428L293.489 25.1348C293.806 25.4224 294.206 25.857 294.688 26.4385C295.171 27.0179 295.735 27.7402 296.383 28.6032C297.425 29.9824 298.157 31.1535 298.643 32.1594C298.049 32.9816 297.33 33.6773 296.404 34.1649C296.398 34.169 296.396 34.171 296.391 34.1731C296.096 34.1527 295.81 34.1364 295.474 34.1057C295.392 34.0792 295.295 34.1384 295.183 34.2833C294.867 34.6729 294.833 35.1524 295.08 35.7114C295.123 35.791 295.22 35.8338 295.371 35.8481C296.899 36.0848 298.305 36.044 299.586 35.7318C300.027 35.6135 300.228 35.1891 300.185 34.4587C300.135 33.7691 299.9 32.9693 299.562 32.1083C300.107 31.1515 300.516 30.0701 300.764 28.8378C300.958 27.8707 301.097 26.9669 301.188 26.1243C301.276 25.2837 301.308 24.4962 301.28 23.7637L301.86 23.1965C302.053 23.0129 302.047 22.8191 301.838 22.6089C301.631 22.3865 301.427 21.8989 301.218 21.1379C301.205 21.0747 301.151 21.0298 301.054 21.0033C300.983 20.989 300.914 21.0216 300.846 21.1012C300.818 21.1379 300.764 21.2297 300.682 21.3746C300.6 21.5194 300.482 21.7153 300.331 21.9622C300.247 22.0928 300.228 22.411 300.266 22.9211C300.391 24.5166 300.37 26.1141 300.206 27.7198C300.073 29.0969 299.72 30.2538 299.209 31.2514C298.695 30.1599 297.991 28.9562 297.065 27.6218C296.611 26.971 296.111 26.3018 295.567 25.6163C295.022 24.9307 294.432 24.2269 293.801 23.5087C292.546 22.0724 291.773 21.3623 291.485 21.3746C291.388 21.3746 291.325 21.4644 291.297 21.648L291.011 23.3516C290.968 23.6413 291.05 23.8943 291.259 24.1167L292.684 25.5653Z" fill="#000105"/>
<path fill-rule="evenodd" clip-rule="evenodd" d="M304.696 28.6779C304.721 29.3446 304.751 30.0114 304.78 30.6721C304.813 31.3349 304.852 31.9916 304.903 32.6483C305.015 34.2148 305.895 35 307.535 35C308.754 35 309.51 34.3714 309.814 33.1122C309.977 32.4434 310.032 31.8289 309.983 31.2706C309.932 30.7103 309.781 30.1941 309.53 29.7162C309.407 29.4993 309.293 29.5053 309.191 29.7363L308.666 30.9332C308.591 31.0999 308.601 31.2545 308.703 31.3951C308.966 31.7787 309.136 32.1522 309.211 32.5137C309.236 32.578 309.236 32.6222 309.211 32.6483C308.836 33.0981 308.276 33.303 307.535 33.2648C306.371 33.1885 305.742 32.5579 305.656 31.375C305.644 31.0939 305.615 30.5456 305.572 29.7363C305.527 28.9269 305.474 27.8525 305.413 26.517C305.335 25.1031 305.186 23.4001 304.96 21.4078C304.923 21.1387 304.872 21.0022 304.809 21.0022C304.77 20.9901 304.727 21.0283 304.678 21.1186L304.076 22.1208C304 22.2493 303.98 22.412 304.02 22.6028C304.206 23.6571 304.357 24.597 304.47 25.4264C304.584 26.2559 304.658 27.3404 304.696 28.6779Z" fill="#000105"/>
<path fill-rule="evenodd" clip-rule="evenodd" d="M307.867 29.6534C308.06 29.7981 308.184 29.8946 308.233 29.9382C308.31 30.0117 308.367 30.0209 308.405 29.9589L309.047 28.7921C309.338 28.985 309.561 29.1343 309.718 29.2446C309.876 29.3548 309.974 29.4306 310.014 29.4766C310.088 29.5501 310.138 29.5638 310.163 29.5202L310.977 27.9974C311.014 27.9399 311.006 27.8802 310.957 27.8228C310.78 27.6459 310.593 27.4897 310.39 27.3588C310.187 27.2256 309.98 27.1085 309.767 27.0051C309.691 26.9913 309.639 27.0051 309.614 27.051L309.011 28.1099C308.859 27.9767 308.698 27.8527 308.529 27.7332C308.357 27.6161 308.178 27.5219 307.989 27.4484C307.926 27.4323 307.883 27.4484 307.857 27.4897L307.024 28.946C306.987 28.9919 306.993 29.0264 307.044 29.0562C307.396 29.3066 307.67 29.5041 307.867 29.6534Z" fill="#000105"/>
<path fill-rule="evenodd" clip-rule="evenodd" d="M311.908 30.817C312.088 32.2251 312.164 33.4929 312.138 34.6182C312.138 34.7795 312.164 34.8927 312.216 34.9597C312.268 35.0393 312.338 35.0016 312.428 34.8403C313.03 33.6459 313.086 30.8316 312.6 26.3892L312.158 21.4628C312.082 20.8321 311.908 20.8467 311.64 21.5026L311.16 22.6698C311.084 22.8584 311.056 23.0847 311.084 23.3529L311.506 26.9948C311.774 29.4884 311.908 30.7625 311.908 30.817Z" fill="#000105"/>
<path fill-rule="evenodd" clip-rule="evenodd" d="M318.22 34.9993C318.971 34.9846 319.7 34.8985 320.4 34.7367C321.1 34.5749 321.761 34.3249 322.382 33.9888C322.582 33.869 322.719 33.7073 322.799 33.5077C322.919 33.1568 322.983 32.7724 322.997 32.3564C323.01 31.9404 322.977 31.5034 322.898 31.0454C322.593 29.3794 321.569 28.0537 319.826 27.0726C319.64 26.9633 319.488 26.978 319.37 27.1125C319.291 27.207 319.201 27.3583 319.102 27.5663C319.002 27.7743 318.899 28.0474 318.796 28.3835C318.728 28.5852 318.827 28.7386 319.091 28.8479C321.009 29.6 322.085 30.6483 322.324 31.9929C322.335 32.1274 322.324 32.2072 322.283 32.2345C321.767 32.5455 320.716 32.7997 319.132 33.0035C318.406 33.0959 317.91 33.035 317.646 32.8186C317.539 32.7282 317.439 32.6778 317.347 32.6778C317.229 32.7072 317.15 32.7934 317.109 32.9404C316.793 34.3396 317.163 35.0245 318.22 34.9993Z" fill="#000105"/>
</svg>
